<svg xmlns="http://www.w3.org/2000/svg" xmlns:svg="http://www.w3.org/2000/svg" xmlns:xlink="http://www.w3.org/1999/xlink" id="svg2" width="102" height="271" version="1.1"><metadata id="metadata36"/><defs id="defs34"><marker id="Arrow1Mend" orient="auto" overflow="visible" refX="0" refY="0"><path id="path3794" fill-rule="evenodd" stroke="#000" stroke-width="1pt" d="M 0.0,0.0 L 5.0,-5.0 L -12.5,0.0 L 5.0,5.0 L 0.0,0.0 z" transform="scale(0.4) rotate(180) translate(10,0)"/></marker></defs><rect id="r" width="20" height="20" x="26" y="6"/><use id="use5" y="30" xlink:href="#r"/><use id="use7" y="60" xlink:href="#r"/><use id="use9" x="20" y="90" xlink:href="#r"/><use id="use11" x="20" y="120" xlink:href="#r"/><use id="use13" x="20" y="150" xlink:href="#r"/><use id="use15" x="20" y="180" xlink:href="#r"/><use id="use17" y="210" xlink:href="#r"/><rect id="t" width="19" height="19" x="66.5" y="66.5" fill="#847a91" stroke="#000"/><use id="use20" y="-30" xlink:href="#t"/><use id="use22" x="10" y="30" xlink:href="#t"/><use id="use24" x="10" y="60" xlink:href="#t"/><use id="use26" x="-60" y="120" xlink:href="#t"/><rect id="rect28" width="19" height="19" x="26.5" y="246.5" fill="#448e73" stroke="#000"/><path id="path4851" stroke="#000" stroke-opacity="1" marker-end="url(#Arrow1Mend)" d="m 76.75,136 -10,0"/><path id="path4849" stroke="#000" stroke-opacity="1" marker-end="url(#Arrow1Mend)" d="m 36,236 0,10"/><path id="path4847" stroke="#000" stroke-opacity="1" marker-end="url(#Arrow1Mend)" d="m 56,176 0,10"/><path id="path4845" stroke="#000" stroke-opacity="1" marker-end="url(#Arrow1Mend)" d="m 56,146 0,10"/><path id="path4843" stroke="#000" stroke-opacity="1" marker-end="url(#Arrow1Mend)" d="m 86,116 0,10"/><path id="path4841" stroke="#000" stroke-opacity="1" marker-end="url(#Arrow1Mend)" d="m 56,116 0,10"/><path id="path4839" stroke="#000" stroke-opacity="1" marker-end="url(#Arrow1Mend)" d="m 76,56 0,10"/><path id="path4837" stroke="#000" stroke-opacity="1" marker-end="url(#Arrow1Mend)" d="m 36,56 0,10"/><path id="path4835" stroke="#000" stroke-opacity="1" marker-end="url(#Arrow1Mend)" d="m 36,26 0,10"/><path id="path4833" stroke="#000" stroke-opacity="1" marker-end="url(#Arrow1Mend)" d="m 14.813189,205.34165 22.650839,12.57354"/><path id="path4831" stroke="#000" stroke-opacity="1" marker-end="url(#Arrow1Mend)" d="M 57.070035,205.22195 36.077544,217.0773"/><path id="path4829" stroke="#000" stroke-opacity="1" marker-end="url(#Arrow1Mend)" d="M 34.788331,85.490793 57.43917,98.064333"/><path id="path30" stroke="#000" stroke-opacity="1" marker-end="url(#Arrow1Mend)" d="M 77.045177,85.371093 56.052686,97.226443"/></svg>